<svg id="Layer_1" data-name="Layer 1" xmlns="http://www.w3.org/2000/svg" viewBox="0 0 368.96 381.99"><title>black</title><polygon points="183.96 17.12 29.46 115.62 68.46 142.62 219.96 43.12 183.96 17.12"/><polygon points="329.96 168.12 215.96 243.12 253.96 268.12 368.96 193.12 329.96 168.12"/><path d="M159,221l-27,17s-5,3-2,9,14,14,14,14L338,393s9,3,16-1l29-18Z" transform="translate(-129.04 -105.88)"/><path d="M454,228l32-26-6.74-4.69-17.54-12.21-24.34-16.95-27.13-18.89-25.92-18c-6.33-4.41-12.71-8.74-19-13.16-3-2.1-6.1-4.12-9-6.34-3.1-2.37-6.4-5.22-10.41-5.74-4.6-.6-8.83,2.4-12.55,4.66L321.15,118,313,123Z" transform="translate(-129.04 -105.88)"/><polygon points="215.96 343.12 335.96 265.12 366.96 289.12 248.96 366.12 215.96 343.12"/><path d="M262,248l26,22,16.82-11.65,27.63-19.13c3.85-2.67,7.37-5.85,12.27-6.07s8,2.58,11.69,5.2c4,2.87,8,5.79,11.93,8.72q12.6,9.31,25.1,18.75L399,270l27-18-11.66-8.26-25.42-18-24.86-17.61c-4.29-3-8.85-7.4-14.18-8.07a35.88,35.88,0,0,0-10.65,0c-5.94,1-10.74,5.14-15.71,8.33l-13.74,8.85-30.58,19.69-17,11Z" transform="translate(-129.04 -105.88)"/><path d="M158,314l-26,18a6.85,6.85,0,0,0-2,8c2,5,208,144,208,144s6,8,17,1,23-13,23-13Z" transform="translate(-129.04 -105.88)"/></svg>