<svg xmlns="http://www.w3.org/2000/svg" viewBox="0 0 1920 1080"><defs><style>.cls-1{fill:#f2f2f2;}.cls-2{fill:#3f3d56;}.cls-3{fill:#6c63ff;}.cls-12,.cls-13,.cls-14,.cls-4{fill:none;stroke-linecap:round;stroke-linejoin:round;}.cls-13,.cls-14,.cls-4{stroke:#151719;}.cls-13,.cls-4{stroke-width:3.69px;}.cls-4{stroke-dasharray:70 20 40 20 80 20;}.cls-15,.cls-16,.cls-17,.cls-4{fill-rule:evenodd;}.cls-15,.cls-5{fill:#3c406a;}.cls-17,.cls-6{fill:#5ab893;}.cls-7{fill:#fff;}.cls-16,.cls-8{fill:#6e70e5;}.cls-9{fill:#8088dc;}.cls-10{fill:#eceded;}.cls-11{fill:#1b3c87;}.cls-12{stroke:#1b3c87;}.cls-12,.cls-14{stroke-width:3.14px;}</style></defs><title>app illustrations new</title><g id="Layer_2" data-name="Layer 2"><rect class="cls-1" x="1290" y="900.32" width="443.89" height="2.34"/><rect class="cls-1" x="1538.98" y="1011.27" width="194.91" height="2.34"/><rect class="cls-1" x="1536.65" y="902.03" width="2.34" height="341.02"/><rect class="cls-1" x="1645.26" y="861.16" width="2.34" height="381.9"/><rect class="cls-1" x="1731.69" y="757.22" width="2.34" height="485.84"/><rect class="cls-2" x="1837.38" y="271.96" width="2.34" height="956.5"/><path class="cls-2" d="M1838,273.71a19.86,19.86,0,1,1,19.86-19.86A19.86,19.86,0,0,1,1838,273.71Zm0-2.34a17.52,17.52,0,1,0-17.51-17.52A17.51,17.51,0,0,0,1838,271.37Z"/><rect class="cls-2" x="1734.02" y="900.35" width="105.11" height="2.34"/><rect class="cls-2" x="1647.6" y="1011.3" width="191.53" height="2.34"/><circle class="cls-3" cx="1839.13" cy="901.49" r="17.04"/><circle class="cls-3" cx="1839.13" cy="1012.98" r="17.04"/><circle class="cls-3" cx="1647.6" cy="1012.98" r="16.35"/><circle class="cls-3" cx="1733.89" cy="1012.56" r="16.35"/><circle class="cls-3" cx="1734.02" cy="902.03" r="16.35"/><circle class="cls-1" cx="1537.82" cy="874.01" r="15.18"/><circle class="cls-1" cx="1645.26" cy="833.13" r="15.18"/><circle class="cls-1" cx="1732.85" cy="729.19" r="15.18"/><g id="Chart"><path class="cls-4" d="M1363.61,1075.28a60.45,60.45,0,1,1-44.11-101.65V861.5c-95.16,0-173,77.64-173,172.5s77.89,172.5,173,172.5c50,0,95.16-21.08,126-54.61Z"/><path class="cls-4" d="M1326,861.5V973.63a60.37,60.37,0,0,1,60.37,60.37H1498.5C1498.5,939.14,1420.86,861.5,1326,861.5Z"/><path class="cls-4" d="M1386,1040.5c0,19.59-10.67,37.26-25,48.5l69.51,89A174.87,174.87,0,0,0,1498,1040Z"/></g><path class="cls-5" d="M158.73,737.3c0-2.27-3.7-3.65-4.67-4.21.44-1.92,7.8-18.37,24.22-18.37,18.65,0,18.65,22.36,18.19,24.94-3.32-.48-22.53-5.87-25.87-8.35-.47,2.42-3.91,13.13-3.91,13.13l-6.93-2.16-1-5"/><path class="cls-6" d="M153.28,780.34l-7.18,9,3,64.2,50.46,14.12-9.75-50.4c-1.24-6.39-31.48-36.91-35.65-36.91Z"/><path class="cls-7" d="M186.42,855.91l-11.69-72.23s-6-3.28-8.5-9.19c1.46-3.45,8.38-6.72,9.82-6.78a10.83,10.83,0,0,1,8.25,3.2c3.27,3.11,32.23,94.55,32.15,98.07Z"/><path class="cls-5" d="M206.5,922.32l14.54,20-61.45,53.73-20.31-20.41,41.86-51.82Z"/><path class="cls-8" d="M171.18,997.9c2.24-3.78,25.66-59.47,25.66-68-.68,0-37.23,1.46-42.08,1.46-46.36,0-52.89-28.77-52.89-32.88,8.21,1,64.89-11.15,69.77-16.44,6.77-.28,49.81,3.32,59.51,4.2,7,1.78,32.85,9.84,32.85,32.58,0,10.21-66.18,92.64-71.83,97.77"/><path class="cls-6" d="M132.17,765.45c25,0,50,74.13,34.81,113.07-3.12,8-52.34,24.88-65.75,19.73-4.74-1.84-14.67-21.41-14.67-45.9,0-19.21,8.12-86.9,45.64-86.9"/><path class="cls-6" d="M119.05,781.82c20.86-7.26,33.49,28.62,32.55,31.85s-31.26,15.22-36.29,13.93-14.12-39.56,3.74-45.78"/><path class="cls-7" d="M149.5,815.55c-2.44,4.5-24,11.17-28.63,11.41,0,0,17.25,40.72,19.83,42s74.65,12.25,79.8,12.38,24.37-3.88,24.37-5.68-2.19-10.18-14.83-10.18c-6.9,0-10.3,2.59-11.33,4-2.84-1.27-59.7-25.78-59.7-25.78s-8-26-9.5-28.16"/><rect class="cls-9" x="62.62" y="930.74" width="110.05" height="10.21"/><rect class="cls-10" x="200.91" y="878.6" width="167.43" height="8.4"/><rect class="cls-5" x="233.39" y="870.27" width="58.97" height="7.07"/><path class="cls-7" d="M167.37,1010.62l-18.81,38.79L181,1074.63l-10.57-29.34,19.34-21.14"/><path class="cls-7" d="M154.63,999.11l-18.68,17-3.22,20.67-14.15-32.86,7.43-3.86,10.77-18.29"/><path class="cls-11" d="M181,739.89c.32-1.13.1-2.16-.52-2.36s-1.38.58-1.7,1.7-.09,2.19.52,2.37,1.38-.6,1.7-1.73"/><path class="cls-12" d="M188.79,753.55a5.76,5.76,0,0,1-.38-1.22"/><path class="cls-13" d="M348.19,1070.77V885"/><path class="cls-13" d="M155.73,730.91c.28-.64.59-1.28.92-1.92a34.16,34.16,0,0,1,7.58-9.88"/><path class="cls-13" d="M177.4,712.59a18.06,18.06,0,0,1,11.24,1.69c10.67,5.48,13.64,21,6.63,34.58"/><path class="cls-13" d="M186.74,759.54c-7.2,5.9-16.18,7.78-23.47,4a17.31,17.31,0,0,1-5-3.92"/><path class="cls-13" d="M157.92,743a6.26,6.26,0,0,1-2.78.67,6.4,6.4,0,1,1,6-8.76"/><path class="cls-13" d="M164.25,764c-4.22,3.88-7.6,14.26-8.54,17.63"/><path class="cls-13" d="M144.51,776.27c-4.21-3.09-7.95-6.77-8.12-8.67,2.89-2.19,14.65-18,16-22.33"/><path class="cls-13" d="M161.11,734.93l1,5,5.22,1.62"/><path class="cls-13" d="M169.72,740c1-3.21,2.92-9.36,3.26-11.12,1.23.91,4.54,2.19,8.42,3.49"/><path class="cls-13" d="M189.76,735c4.18,1.19,7.81,2.11,9.1,2.29"/><path class="cls-13" d="M174.12,832.3c1.78,15.51.9,30.88-3.77,42.88-.78,2-4.44,4.55-9.71,7.18"/><path class="cls-13" d="M138.57,890.81c-13.57,4.09-27.72,6.52-34,4.09C99.83,893.08,89.9,873.51,89.9,849a176.15,176.15,0,0,1,5.19-38.62"/><path class="cls-13" d="M111.6,774.11c6.2-7.3,14-12,23.93-12a14,14,0,0,1,5,1"/><path class="cls-13" d="M156.63,778.66a108.45,108.45,0,0,1,10,21.28"/><path class="cls-13" d="M169.57,771.15c1.46-3.45,8.38-6.72,9.82-6.78a10.83,10.83,0,0,1,8.25,3.2,22.74,22.74,0,0,1,2.33,5"/><path class="cls-13" d="M195.54,787.91c4.92,14.25,11.16,33.46,16.08,49.17"/><path class="cls-13" d="M217.16,855.22a90.46,90.46,0,0,1,2.63,9.94"/><path class="cls-13" d="M171.6,774.83c1.8-2.1,5.24-4.2,6.67-4.43"/><path class="cls-13" d="M175.6,779.89c1.79-2.1,5.24-4.2,6.66-4.43"/><path class="cls-13" d="M178.26,782.93c3.49,10.85,11.38,66.05,11.49,69.25"/><path class="cls-13" d="M157.35,776.58c4.72,2.26,10.6,7.85,15.46,13"/><path class="cls-13" d="M295.23,867.4l30.67-49.85"/><path class="cls-13" d="M174.52,994.55c2.24-3.77,25.66-59.46,25.66-68-.68,0-37.23,1.46-42.08,1.46-46.36,0-52.89-28.77-52.89-32.88"/><path class="cls-13" d="M195.52,1013.25c5.66-5.13,71.82-87.57,71.82-97.77,0-22.75-26-30-32.85-32.58"/><path class="cls-13" d="M168.47,997.59l30.35,19.34"/><path class="cls-13" d="M164.22,1003.3l31.29,19"/><path class="cls-13" d="M163.55,992.71,183,975.14"/><path class="cls-13" d="M142.65,972.3l28.94-35.95"/><path class="cls-13" d="M164.87,994.57l-25.58-24.85"/><path class="cls-13" d="M161.64,999.37l-25.57-24.85"/><path class="cls-13" d="M237.72,1080.05V882.9"/><path class="cls-13" d="M153.42,803.58c1.23,3.41,1.75,6,1.53,6.74-.95,3.23-31.26,15.23-36.29,13.93s-14.13-39.55,3.73-45.77c7.64-2.66,14.17.46,19.34,5.65"/><path class="cls-13" d="M152.86,812.21c1.46,2.16,9.51,28.16,9.51,28.16s56.86,24.5,59.69,25.79c1-1.42,4.42-4,11.34-4,12.63,0,14.82,8.37,14.82,10.18S229,878.15,223.85,878c-2.48,0-20.3-2.6-38.49-5.38"/><path class="cls-13" d="M160,868.6c-8.83-1.46-15.19-2.61-15.92-3-2.58-1.27-19.83-42-19.83-42"/><path class="cls-13" d="M86.58,936.35H67.24v-10.2h110v10.2H108.4"/><path class="cls-13" d="M346.7,874.49h25.76v8.41H205v-8.42H325.9"/><rect class="cls-13" x="236.25" y="867.41" width="58.97" height="7.07"/><path class="cls-13" d="M170.72,1007.26l-11.26,23.22"/><path class="cls-13" d="M155.21,1039.26l-3.31,6.81,32.43,25.22L173.76,1042l19.34-21.14"/><path class="cls-13" d="M157.91,995.77l-4.77,4.35"/><path class="cls-13" d="M143.3,1009.14l-4,3.66-3.22,20.67-14.15-32.86,7.43-3.88,10.77-18.27"/><path class="cls-13" d="M148.85,1079.05V936.35"/><path class="cls-13" d="M95.63,1079.07V990.82"/><path class="cls-13" d="M95.63,966.41V936.35"/><path class="cls-14" d="M188.25,750.3a14.62,14.62,0,0,1,.86-4.58"/><path class="cls-14" d="M173.74,756.86a6.13,6.13,0,0,1-2.87-5.17"/><path class="cls-10" d="M594.91,1188.52c358.59,68.71,679,194.65,803.73,73.15,70.54-68.74,78.08-149,78.08-149C1490,1010,1468,936,1386,895c-223.33-111.67-336.57,118.19-908.8,110.36-470.8-6.44-689-187.19-836.48-55.5-14.54,13-63.64,56.85-54.53,100.36C-389.2,1167.68,16.84,1077.75,594.91,1188.52Z"/><g id="Graph"><path id="Value" class="cls-15" d="M974.5,983h178a3,3,0,0,1,3,3h0a3,3,0,0,1-3,3h-178a3,3,0,0,1-3-3h0A3,3,0,0,1,974.5,983Z"/><path class="cls-15" d="M902.5,997h250a3,3,0,0,1,3,3h0a3,3,0,0,1-3,3h-250a3,3,0,0,1-3-3h0A3,3,0,0,1,902.5,997Z"/><path class="cls-15" d="M850.5,1011h302a3,3,0,0,1,3,3h0a3,3,0,0,1-3,3h-302a3,3,0,0,1-3-3h0A3,3,0,0,1,850.5,1011Z"/><path class="cls-15" d="M869.5,1025h283a3,3,0,0,1,3,3h0a3,3,0,0,1-3,3h-283a3,3,0,0,1-3-3h0A3,3,0,0,1,869.5,1025Z"/><path class="cls-15" d="M824.5,1039h328a3,3,0,0,1,3,3h0a3,3,0,0,1-3,3h-328a3,3,0,0,1-3-3h0A3,3,0,0,1,824.5,1039Z"/></g><g id="Chart-2" data-name="Chart"><path class="cls-16" d="M1354.16,1090.78a60.45,60.45,0,1,1-44.11-101.65V877c-95.16,0-173,77.64-173,172.5s77.89,172.5,173,172.5c50,0,95.16-21.08,126-54.61Z"/><path class="cls-17" d="M1309.5,877V989.13a60.37,60.37,0,0,1,60.37,60.37H1482C1482,954.64,1404.36,877,1309.5,877Z"/><path class="cls-17" d="M1370,1049.5c0,19.59-10.67,37.26-25,48.5l69.51,89A174.87,174.87,0,0,0,1482,1049Z"/></g></g></svg>