<svg id="Layer_1" data-name="Layer 1" xmlns="http://www.w3.org/2000/svg" viewBox="0 0 1920 1080"><defs><style>.cls-1{fill:#f2f2f2;}.cls-10,.cls-2,.cls-6,.cls-8,.cls-9{fill:none;}.cls-2,.cls-6,.cls-9{stroke:#000;}.cls-10,.cls-2,.cls-6,.cls-9{stroke-miterlimit:10;}.cls-2{stroke-dasharray:12;}.cls-3{fill:#6e70e5;}.cls-4{fill:#eceded;}.cls-5{fill:#5ab893;}.cls-7{fill:#3c406a;}.cls-8{stroke:#5ab893;stroke-linejoin:round;stroke-width:2px;}.cls-9{stroke-width:3px;}.cls-10{stroke:#151719;}.cls-11{fill:#151719;}.cls-12{fill:#3f3d56;}.cls-13{fill:#6c63ff;}.cls-14{fill:#f0f0f0;}</style></defs><title>app illustrations new</title><rect class="cls-1" x="1105" y="861" width="422" height="355" rx="50"/><circle class="cls-2" cx="290.86" cy="863" r="134.57"/><circle class="cls-1" cx="402.29" cy="786.71" r="27.86"/><rect class="cls-3" x="1219" y="1052.46" width="663" height="6.55"/><rect class="cls-3" x="1219" y="1037.73" width="663" height="6.55"/><rect class="cls-3" x="1219" y="1023" width="663" height="6.55"/><rect class="cls-1" x="1300" y="904" width="183" height="241" rx="5.09"/><rect class="cls-3" x="609.45" y="857" width="6.55" height="204"/><rect class="cls-3" x="594.73" y="857" width="6.55" height="204"/><rect class="cls-3" x="580" y="857" width="6.55" height="204"/><g id="Layer_1-2" data-name="Layer 1-2"><path class="cls-4" d="M151,903.5h0a24,24,0,0,1,24-24H657v48.07h-482A24,24,0,0,1,151,903.5Z"/><rect class="cls-5" x="665.99" y="877.1" width="27.99" height="34.86"/><rect class="cls-6" x="669.63" y="882.09" width="10.36" height="10.36"/><rect class="cls-6" x="669.63" y="896.6" width="10.36" height="10.36"/><rect class="cls-7" x="653.26" y="873.94" width="8.21" height="41.18"/><line class="cls-6" x1="648.47" y1="894.53" x2="169.67" y2="894.53"/><path class="cls-6" d="M184.5,870.53h482a0,0,0,0,1,0,0v48a0,0,0,0,1,0,0h-482a24,24,0,0,1-24-24v0A24,24,0,0,1,184.5,870.53Z"/></g><g id="Layer_1-2-2" data-name="Layer 1-2"><path class="cls-5" d="M1174,951.38v9.22a17.61,17.61,0,0,0,17.56,17.56h3.73V951.38Z"/><path class="cls-8" d="M1195,951H1062a8,8,0,0,0-8,8v72.5a8,8,0,0,1-8,8H201"/><line class="cls-9" x1="1195.32" y1="978.1" x2="1195.32" y2="924.65"/><circle class="cls-7" cx="1207.41" cy="955.94" r="2.02"/><circle class="cls-7" cx="1207.41" cy="950.26" r="2.02"/><circle class="cls-7" cx="1207.41" cy="944.58" r="2.02"/><circle class="cls-7" cx="1207.41" cy="938.9" r="2.02"/><circle class="cls-7" cx="1207.41" cy="933.22" r="2.02"/><circle class="cls-7" cx="1207.41" cy="927.53" r="2.02"/><circle class="cls-7" cx="1219.14" cy="955.94" r="2.02"/><circle class="cls-7" cx="1219.14" cy="950.26" r="2.02"/><circle class="cls-7" cx="1219.14" cy="944.58" r="2.02"/><circle class="cls-7" cx="1219.14" cy="938.9" r="2.02"/><circle class="cls-7" cx="1219.14" cy="933.22" r="2.02"/><circle class="cls-7" cx="1219.14" cy="927.53" r="2.02"/><circle class="cls-7" cx="1213.27" cy="953.01" r="2.02"/><circle class="cls-7" cx="1213.27" cy="947.33" r="2.02"/><circle class="cls-7" cx="1213.27" cy="941.65" r="2.02"/><circle class="cls-7" cx="1213.27" cy="935.97" r="2.02"/><circle class="cls-7" cx="1213.27" cy="930.28" r="2.02"/><circle class="cls-7" cx="1213.27" cy="924.6" r="2.02"/><circle class="cls-7" cx="1225" cy="953.01" r="2.02"/><circle class="cls-7" cx="1225" cy="947.33" r="2.02"/><circle class="cls-7" cx="1225" cy="941.65" r="2.02"/><circle class="cls-7" cx="1225" cy="935.97" r="2.02"/><circle class="cls-7" cx="1225" cy="930.28" r="2.02"/><circle class="cls-7" cx="1225" cy="924.6" r="2.02"/><rect class="cls-6" x="1174" y="925" width="73" height="53" rx="17.31"/></g><circle class="cls-3" cx="797.69" cy="992.98" r="4.45"/><circle class="cls-3" cx="810.22" cy="992.98" r="4.45"/><circle class="cls-3" cx="822.75" cy="992.98" r="4.45"/><circle class="cls-3" cx="835.28" cy="992.98" r="4.45"/><circle class="cls-3" cx="847.81" cy="992.98" r="4.45"/><circle class="cls-3" cx="860.34" cy="992.98" r="4.45"/><circle class="cls-3" cx="797.69" cy="1004.98" r="4.45"/><circle class="cls-3" cx="810.22" cy="1004.98" r="4.45"/><circle class="cls-3" cx="822.75" cy="1004.98" r="4.45"/><circle class="cls-3" cx="835.28" cy="1004.98" r="4.45"/><circle class="cls-3" cx="847.81" cy="1004.98" r="4.45"/><circle class="cls-3" cx="860.34" cy="1004.98" r="4.45"/><circle class="cls-3" cx="797.69" cy="1016.98" r="4.45"/><circle class="cls-3" cx="810.22" cy="1016.98" r="4.45"/><circle class="cls-3" cx="822.75" cy="1016.98" r="4.45"/><circle class="cls-3" cx="835.28" cy="1016.98" r="4.45"/><circle class="cls-3" cx="847.81" cy="1016.98" r="4.45"/><circle class="cls-3" cx="860.34" cy="1016.98" r="4.45"/><circle class="cls-3" cx="797.69" cy="1028.98" r="4.45"/><circle class="cls-3" cx="810.22" cy="1028.98" r="4.45"/><circle class="cls-3" cx="822.75" cy="1028.98" r="4.45"/><circle class="cls-3" cx="835.28" cy="1028.98" r="4.45"/><circle class="cls-3" cx="847.81" cy="1028.98" r="4.45"/><circle class="cls-3" cx="860.34" cy="1028.98" r="4.45"/><circle class="cls-3" cx="797.69" cy="1040.98" r="4.45"/><circle class="cls-3" cx="810.22" cy="1040.98" r="4.45"/><circle class="cls-3" cx="822.75" cy="1040.98" r="4.45"/><circle class="cls-3" cx="835.28" cy="1040.98" r="4.45"/><circle class="cls-3" cx="847.81" cy="1040.98" r="4.45"/><circle class="cls-3" cx="860.34" cy="1040.98" r="4.45"/><circle class="cls-3" cx="797.69" cy="1052.98" r="4.45"/><circle class="cls-3" cx="810.22" cy="1052.98" r="4.45"/><circle class="cls-3" cx="822.75" cy="1052.98" r="4.45"/><circle class="cls-3" cx="835.28" cy="1052.98" r="4.45"/><circle class="cls-3" cx="847.81" cy="1052.98" r="4.45"/><circle class="cls-3" cx="860.34" cy="1052.98" r="4.45"/><circle class="cls-3" cx="797.69" cy="1064.98" r="4.45"/><circle class="cls-3" cx="810.22" cy="1064.98" r="4.45"/><circle class="cls-3" cx="822.75" cy="1064.98" r="4.45"/><circle class="cls-3" cx="835.28" cy="1064.98" r="4.45"/><circle class="cls-3" cx="847.81" cy="1064.98" r="4.45"/><circle class="cls-3" cx="860.34" cy="1064.98" r="4.45"/><circle class="cls-3" cx="797.69" cy="1076.98" r="4.45"/><circle class="cls-3" cx="810.22" cy="1076.98" r="4.45"/><circle class="cls-3" cx="822.75" cy="1076.98" r="4.45"/><circle class="cls-3" cx="835.28" cy="1076.98" r="4.45"/><circle class="cls-3" cx="847.81" cy="1076.98" r="4.45"/><circle class="cls-3" cx="860.34" cy="1076.98" r="4.45"/><path d="M799.69,986.78a4.2,4.2,0,1,1-4.2,4.2,4.2,4.2,0,0,1,4.2-4.2m0-.25a4.45,4.45,0,1,0,4.44,4.45,4.45,4.45,0,0,0-4.44-4.45Z"/><path d="M812.22,986.78A4.2,4.2,0,1,1,808,991a4.2,4.2,0,0,1,4.2-4.2m0-.25a4.45,4.45,0,1,0,4.44,4.45,4.45,4.45,0,0,0-4.44-4.45Z"/><path d="M824.75,986.78a4.2,4.2,0,1,1-4.2,4.2,4.2,4.2,0,0,1,4.2-4.2m0-.25a4.45,4.45,0,1,0,4.44,4.45,4.45,4.45,0,0,0-4.44-4.45Z"/><path d="M837.28,986.78a4.2,4.2,0,1,1-4.2,4.2,4.2,4.2,0,0,1,4.2-4.2m0-.25a4.45,4.45,0,1,0,4.44,4.45,4.45,4.45,0,0,0-4.44-4.45Z"/><path d="M849.81,986.78a4.2,4.2,0,1,1-4.2,4.2,4.21,4.21,0,0,1,4.2-4.2m0-.25a4.45,4.45,0,1,0,4.45,4.45,4.45,4.45,0,0,0-4.45-4.45Z"/><path d="M862.34,986.78a4.2,4.2,0,1,1-4.2,4.2,4.2,4.2,0,0,1,4.2-4.2m0-.25a4.45,4.45,0,1,0,4.44,4.45,4.45,4.45,0,0,0-4.44-4.45Z"/><path d="M799.69,998.78a4.2,4.2,0,1,1-4.2,4.2,4.2,4.2,0,0,1,4.2-4.2m0-.25a4.45,4.45,0,1,0,4.44,4.45,4.45,4.45,0,0,0-4.44-4.45Z"/><path d="M812.22,998.78a4.2,4.2,0,1,1-4.2,4.2,4.2,4.2,0,0,1,4.2-4.2m0-.25a4.45,4.45,0,1,0,4.44,4.45,4.45,4.45,0,0,0-4.44-4.45Z"/><path d="M824.75,998.78a4.2,4.2,0,1,1-4.2,4.2,4.2,4.2,0,0,1,4.2-4.2m0-.25a4.45,4.45,0,1,0,4.44,4.45,4.45,4.45,0,0,0-4.44-4.45Z"/><path d="M837.28,998.78a4.2,4.2,0,1,1-4.2,4.2,4.2,4.2,0,0,1,4.2-4.2m0-.25a4.45,4.45,0,1,0,4.44,4.45,4.45,4.45,0,0,0-4.44-4.45Z"/><path d="M849.81,998.78a4.2,4.2,0,1,1-4.2,4.2,4.21,4.21,0,0,1,4.2-4.2m0-.25a4.45,4.45,0,1,0,4.45,4.45,4.45,4.45,0,0,0-4.45-4.45Z"/><path d="M862.34,998.78a4.2,4.2,0,1,1-4.2,4.2,4.2,4.2,0,0,1,4.2-4.2m0-.25a4.45,4.45,0,1,0,4.44,4.45,4.45,4.45,0,0,0-4.44-4.45Z"/><path d="M799.69,1010.78a4.2,4.2,0,1,1-4.2,4.2,4.2,4.2,0,0,1,4.2-4.2m0-.25a4.45,4.45,0,1,0,4.44,4.45,4.45,4.45,0,0,0-4.44-4.45Z"/><path d="M812.22,1010.78a4.2,4.2,0,1,1-4.2,4.2,4.2,4.2,0,0,1,4.2-4.2m0-.25a4.45,4.45,0,1,0,4.44,4.45,4.45,4.45,0,0,0-4.44-4.45Z"/><path d="M824.75,1010.78a4.2,4.2,0,1,1-4.2,4.2,4.2,4.2,0,0,1,4.2-4.2m0-.25a4.45,4.45,0,1,0,4.44,4.45,4.45,4.45,0,0,0-4.44-4.45Z"/><path d="M837.28,1010.78a4.2,4.2,0,1,1-4.2,4.2,4.2,4.2,0,0,1,4.2-4.2m0-.25a4.45,4.45,0,1,0,4.44,4.45,4.45,4.45,0,0,0-4.44-4.45Z"/><path d="M849.81,1010.78a4.2,4.2,0,1,1-4.2,4.2,4.21,4.21,0,0,1,4.2-4.2m0-.25a4.45,4.45,0,1,0,4.45,4.45,4.45,4.45,0,0,0-4.45-4.45Z"/><path d="M862.34,1010.78a4.2,4.2,0,1,1-4.2,4.2,4.2,4.2,0,0,1,4.2-4.2m0-.25a4.45,4.45,0,1,0,4.44,4.45,4.45,4.45,0,0,0-4.44-4.45Z"/><path d="M799.69,1022.78a4.2,4.2,0,1,1-4.2,4.2,4.2,4.2,0,0,1,4.2-4.2m0-.25a4.45,4.45,0,1,0,4.44,4.45,4.45,4.45,0,0,0-4.44-4.45Z"/><path d="M812.22,1022.78a4.2,4.2,0,1,1-4.2,4.2,4.2,4.2,0,0,1,4.2-4.2m0-.25a4.45,4.45,0,1,0,4.44,4.45,4.45,4.45,0,0,0-4.44-4.45Z"/><path d="M824.75,1022.78a4.2,4.2,0,1,1-4.2,4.2,4.2,4.2,0,0,1,4.2-4.2m0-.25a4.45,4.45,0,1,0,4.44,4.45,4.45,4.45,0,0,0-4.44-4.45Z"/><path d="M837.28,1022.78a4.2,4.2,0,1,1-4.2,4.2,4.2,4.2,0,0,1,4.2-4.2m0-.25a4.45,4.45,0,1,0,4.44,4.45,4.45,4.45,0,0,0-4.44-4.45Z"/><path d="M849.81,1022.78a4.2,4.2,0,1,1-4.2,4.2,4.21,4.21,0,0,1,4.2-4.2m0-.25a4.45,4.45,0,1,0,4.45,4.45,4.45,4.45,0,0,0-4.45-4.45Z"/><path d="M862.34,1022.78a4.2,4.2,0,1,1-4.2,4.2,4.2,4.2,0,0,1,4.2-4.2m0-.25a4.45,4.45,0,1,0,4.44,4.45,4.45,4.45,0,0,0-4.44-4.45Z"/><path d="M799.69,1034.78a4.2,4.2,0,1,1-4.2,4.2,4.2,4.2,0,0,1,4.2-4.2m0-.25a4.45,4.45,0,1,0,4.44,4.45,4.45,4.45,0,0,0-4.44-4.45Z"/><path d="M812.22,1034.78a4.2,4.2,0,1,1-4.2,4.2,4.2,4.2,0,0,1,4.2-4.2m0-.25a4.45,4.45,0,1,0,4.44,4.45,4.45,4.45,0,0,0-4.44-4.45Z"/><path d="M824.75,1034.78a4.2,4.2,0,1,1-4.2,4.2,4.2,4.2,0,0,1,4.2-4.2m0-.25a4.45,4.45,0,1,0,4.44,4.45,4.45,4.45,0,0,0-4.44-4.45Z"/><path d="M837.28,1034.78a4.2,4.2,0,1,1-4.2,4.2,4.2,4.2,0,0,1,4.2-4.2m0-.25a4.45,4.45,0,1,0,4.44,4.45,4.45,4.45,0,0,0-4.44-4.45Z"/><path d="M849.81,1034.78a4.2,4.2,0,1,1-4.2,4.2,4.21,4.21,0,0,1,4.2-4.2m0-.25a4.45,4.45,0,1,0,4.45,4.45,4.45,4.45,0,0,0-4.45-4.45Z"/><path d="M862.34,1034.78a4.2,4.2,0,1,1-4.2,4.2,4.2,4.2,0,0,1,4.2-4.2m0-.25a4.45,4.45,0,1,0,4.44,4.45,4.45,4.45,0,0,0-4.44-4.45Z"/><path d="M799.69,1046.78a4.2,4.2,0,1,1-4.2,4.2,4.2,4.2,0,0,1,4.2-4.2m0-.25a4.45,4.45,0,1,0,4.44,4.45,4.45,4.45,0,0,0-4.44-4.45Z"/><path d="M812.22,1046.78a4.2,4.2,0,1,1-4.2,4.2,4.2,4.2,0,0,1,4.2-4.2m0-.25a4.45,4.45,0,1,0,4.44,4.45,4.45,4.45,0,0,0-4.44-4.45Z"/><path d="M824.75,1046.78a4.2,4.2,0,1,1-4.2,4.2,4.2,4.2,0,0,1,4.2-4.2m0-.25a4.45,4.45,0,1,0,4.44,4.45,4.45,4.45,0,0,0-4.44-4.45Z"/><path d="M837.28,1046.78a4.2,4.2,0,1,1-4.2,4.2,4.2,4.2,0,0,1,4.2-4.2m0-.25a4.45,4.45,0,1,0,4.44,4.45,4.45,4.45,0,0,0-4.44-4.45Z"/><path d="M849.81,1046.78a4.2,4.2,0,1,1-4.2,4.2,4.21,4.21,0,0,1,4.2-4.2m0-.25a4.45,4.45,0,1,0,4.45,4.45,4.45,4.45,0,0,0-4.45-4.45Z"/><path d="M862.34,1046.78a4.2,4.2,0,1,1-4.2,4.2,4.2,4.2,0,0,1,4.2-4.2m0-.25a4.45,4.45,0,1,0,4.44,4.45,4.45,4.45,0,0,0-4.44-4.45Z"/><path d="M799.69,1058.78a4.2,4.2,0,1,1-4.2,4.2,4.2,4.2,0,0,1,4.2-4.2m0-.25a4.45,4.45,0,1,0,4.44,4.45,4.45,4.45,0,0,0-4.44-4.45Z"/><path d="M812.22,1058.78a4.2,4.2,0,1,1-4.2,4.2,4.2,4.2,0,0,1,4.2-4.2m0-.25a4.45,4.45,0,1,0,4.44,4.45,4.45,4.45,0,0,0-4.44-4.45Z"/><path d="M824.75,1058.78a4.2,4.2,0,1,1-4.2,4.2,4.2,4.2,0,0,1,4.2-4.2m0-.25a4.45,4.45,0,1,0,4.44,4.45,4.45,4.45,0,0,0-4.44-4.45Z"/><path d="M837.28,1058.78a4.2,4.2,0,1,1-4.2,4.2,4.2,4.2,0,0,1,4.2-4.2m0-.25a4.45,4.45,0,1,0,4.44,4.45,4.45,4.45,0,0,0-4.44-4.45Z"/><path d="M849.81,1058.78a4.2,4.2,0,1,1-4.2,4.2,4.21,4.21,0,0,1,4.2-4.2m0-.25a4.45,4.45,0,1,0,4.45,4.45,4.45,4.45,0,0,0-4.45-4.45Z"/><path d="M862.34,1058.78a4.2,4.2,0,1,1-4.2,4.2,4.2,4.2,0,0,1,4.2-4.2m0-.25a4.45,4.45,0,1,0,4.44,4.45,4.45,4.45,0,0,0-4.44-4.45Z"/><path d="M799.69,1070.78a4.2,4.2,0,1,1-4.2,4.2,4.2,4.2,0,0,1,4.2-4.2m0-.25a4.45,4.45,0,1,0,4.44,4.45,4.45,4.45,0,0,0-4.44-4.45Z"/><path d="M812.22,1070.78a4.2,4.2,0,1,1-4.2,4.2,4.2,4.2,0,0,1,4.2-4.2m0-.25a4.45,4.45,0,1,0,4.44,4.45,4.45,4.45,0,0,0-4.44-4.45Z"/><path d="M824.75,1070.78a4.2,4.2,0,1,1-4.2,4.2,4.2,4.2,0,0,1,4.2-4.2m0-.25a4.45,4.45,0,1,0,4.44,4.45,4.45,4.45,0,0,0-4.44-4.45Z"/><path d="M837.28,1070.78a4.2,4.2,0,1,1-4.2,4.2,4.2,4.2,0,0,1,4.2-4.2m0-.25a4.45,4.45,0,1,0,4.44,4.45,4.45,4.45,0,0,0-4.44-4.45Z"/><path d="M849.81,1070.78a4.2,4.2,0,1,1-4.2,4.2,4.21,4.21,0,0,1,4.2-4.2m0-.25a4.45,4.45,0,1,0,4.45,4.45,4.45,4.45,0,0,0-4.45-4.45Z"/><path d="M862.34,1070.78a4.2,4.2,0,1,1-4.2,4.2,4.2,4.2,0,0,1,4.2-4.2m0-.25a4.45,4.45,0,1,0,4.44,4.45,4.45,4.45,0,0,0-4.44-4.45Z"/><circle class="cls-3" cx="872.69" cy="992.98" r="4.45"/><circle class="cls-3" cx="885.22" cy="992.98" r="4.45"/><circle class="cls-3" cx="897.75" cy="992.98" r="4.45"/><circle class="cls-3" cx="910.28" cy="992.98" r="4.45"/><circle class="cls-3" cx="922.81" cy="992.98" r="4.45"/><circle class="cls-3" cx="935.34" cy="992.98" r="4.45"/><circle class="cls-3" cx="872.69" cy="1004.98" r="4.45"/><circle class="cls-3" cx="885.22" cy="1004.98" r="4.45"/><circle class="cls-3" cx="897.75" cy="1004.98" r="4.45"/><circle class="cls-3" cx="910.28" cy="1004.98" r="4.45"/><circle class="cls-3" cx="922.81" cy="1004.98" r="4.45"/><circle class="cls-3" cx="935.34" cy="1004.98" r="4.45"/><circle class="cls-3" cx="872.69" cy="1016.98" r="4.45"/><circle class="cls-3" cx="885.22" cy="1016.98" r="4.45"/><circle class="cls-3" cx="897.75" cy="1016.98" r="4.45"/><circle class="cls-3" cx="910.28" cy="1016.98" r="4.45"/><circle class="cls-3" cx="922.81" cy="1016.98" r="4.45"/><circle class="cls-3" cx="935.34" cy="1016.98" r="4.45"/><circle class="cls-3" cx="872.69" cy="1028.98" r="4.45"/><circle class="cls-3" cx="885.22" cy="1028.98" r="4.45"/><circle class="cls-3" cx="897.75" cy="1028.98" r="4.45"/><circle class="cls-3" cx="910.28" cy="1028.98" r="4.45"/><circle class="cls-3" cx="922.81" cy="1028.98" r="4.45"/><circle class="cls-3" cx="935.34" cy="1028.98" r="4.45"/><circle class="cls-3" cx="872.69" cy="1040.98" r="4.45"/><circle class="cls-3" cx="885.22" cy="1040.98" r="4.45"/><circle class="cls-3" cx="897.75" cy="1040.98" r="4.45"/><circle class="cls-3" cx="910.28" cy="1040.98" r="4.45"/><circle class="cls-3" cx="922.81" cy="1040.98" r="4.45"/><circle class="cls-3" cx="935.34" cy="1040.98" r="4.45"/><circle class="cls-3" cx="872.69" cy="1052.98" r="4.45"/><circle class="cls-3" cx="885.22" cy="1052.98" r="4.45"/><circle class="cls-3" cx="897.75" cy="1052.98" r="4.45"/><circle class="cls-3" cx="910.28" cy="1052.98" r="4.45"/><circle class="cls-3" cx="922.81" cy="1052.98" r="4.45"/><circle class="cls-3" cx="935.34" cy="1052.98" r="4.45"/><circle class="cls-3" cx="872.69" cy="1064.98" r="4.45"/><circle class="cls-3" cx="885.22" cy="1064.98" r="4.45"/><circle class="cls-3" cx="897.75" cy="1064.98" r="4.45"/><circle class="cls-3" cx="910.28" cy="1064.98" r="4.45"/><circle class="cls-3" cx="922.81" cy="1064.98" r="4.45"/><circle class="cls-3" cx="935.34" cy="1064.98" r="4.45"/><circle class="cls-3" cx="872.69" cy="1076.98" r="4.45"/><circle class="cls-3" cx="885.22" cy="1076.98" r="4.45"/><circle class="cls-3" cx="897.75" cy="1076.98" r="4.45"/><circle class="cls-3" cx="910.28" cy="1076.98" r="4.45"/><circle class="cls-3" cx="922.81" cy="1076.98" r="4.45"/><circle class="cls-3" cx="935.34" cy="1076.98" r="4.45"/><path d="M874.69,986.78a4.2,4.2,0,1,1-4.2,4.2,4.2,4.2,0,0,1,4.2-4.2m0-.25a4.45,4.45,0,1,0,4.44,4.45,4.45,4.45,0,0,0-4.44-4.45Z"/><path d="M887.22,986.78A4.2,4.2,0,1,1,883,991a4.2,4.2,0,0,1,4.2-4.2m0-.25a4.45,4.45,0,1,0,4.44,4.45,4.45,4.45,0,0,0-4.44-4.45Z"/><path d="M899.75,986.78a4.2,4.2,0,1,1-4.2,4.2,4.2,4.2,0,0,1,4.2-4.2m0-.25a4.45,4.45,0,1,0,4.44,4.45,4.45,4.45,0,0,0-4.44-4.45Z"/><path d="M912.28,986.78a4.2,4.2,0,1,1-4.2,4.2,4.2,4.2,0,0,1,4.2-4.2m0-.25a4.45,4.45,0,1,0,4.44,4.45,4.45,4.45,0,0,0-4.44-4.45Z"/><path d="M924.81,986.78a4.2,4.2,0,1,1-4.2,4.2,4.21,4.21,0,0,1,4.2-4.2m0-.25a4.45,4.45,0,1,0,4.45,4.45,4.45,4.45,0,0,0-4.45-4.45Z"/><path d="M937.34,986.78a4.2,4.2,0,1,1-4.2,4.2,4.2,4.2,0,0,1,4.2-4.2m0-.25a4.45,4.45,0,1,0,4.44,4.45,4.45,4.45,0,0,0-4.44-4.45Z"/><path d="M874.69,998.78a4.2,4.2,0,1,1-4.2,4.2,4.2,4.2,0,0,1,4.2-4.2m0-.25a4.45,4.45,0,1,0,4.44,4.45,4.45,4.45,0,0,0-4.44-4.45Z"/><path d="M887.22,998.78a4.2,4.2,0,1,1-4.2,4.2,4.2,4.2,0,0,1,4.2-4.2m0-.25a4.45,4.45,0,1,0,4.44,4.45,4.45,4.45,0,0,0-4.44-4.45Z"/><path d="M899.75,998.78a4.2,4.2,0,1,1-4.2,4.2,4.2,4.2,0,0,1,4.2-4.2m0-.25a4.45,4.45,0,1,0,4.44,4.45,4.45,4.45,0,0,0-4.44-4.45Z"/><path d="M912.28,998.78a4.2,4.2,0,1,1-4.2,4.2,4.2,4.2,0,0,1,4.2-4.2m0-.25a4.45,4.45,0,1,0,4.44,4.45,4.45,4.45,0,0,0-4.44-4.45Z"/><path d="M924.81,998.78a4.2,4.2,0,1,1-4.2,4.2,4.21,4.21,0,0,1,4.2-4.2m0-.25a4.45,4.45,0,1,0,4.45,4.45,4.45,4.45,0,0,0-4.45-4.45Z"/><path d="M937.34,998.78a4.2,4.2,0,1,1-4.2,4.2,4.2,4.2,0,0,1,4.2-4.2m0-.25a4.45,4.45,0,1,0,4.44,4.45,4.45,4.45,0,0,0-4.44-4.45Z"/><path d="M874.69,1010.78a4.2,4.2,0,1,1-4.2,4.2,4.2,4.2,0,0,1,4.2-4.2m0-.25a4.45,4.45,0,1,0,4.44,4.45,4.45,4.45,0,0,0-4.44-4.45Z"/><path d="M887.22,1010.78a4.2,4.2,0,1,1-4.2,4.2,4.2,4.2,0,0,1,4.2-4.2m0-.25a4.45,4.45,0,1,0,4.44,4.45,4.45,4.45,0,0,0-4.44-4.45Z"/><path d="M899.75,1010.78a4.2,4.2,0,1,1-4.2,4.2,4.2,4.2,0,0,1,4.2-4.2m0-.25a4.45,4.45,0,1,0,4.44,4.45,4.45,4.45,0,0,0-4.44-4.45Z"/><path d="M912.28,1010.78a4.2,4.2,0,1,1-4.2,4.2,4.2,4.2,0,0,1,4.2-4.2m0-.25a4.45,4.45,0,1,0,4.44,4.45,4.45,4.45,0,0,0-4.44-4.45Z"/><path d="M924.81,1010.78a4.2,4.2,0,1,1-4.2,4.2,4.21,4.21,0,0,1,4.2-4.2m0-.25a4.45,4.45,0,1,0,4.45,4.45,4.45,4.45,0,0,0-4.45-4.45Z"/><path d="M937.34,1010.78a4.2,4.2,0,1,1-4.2,4.2,4.2,4.2,0,0,1,4.2-4.2m0-.25a4.45,4.45,0,1,0,4.44,4.45,4.45,4.45,0,0,0-4.44-4.45Z"/><path d="M874.69,1022.78a4.2,4.2,0,1,1-4.2,4.2,4.2,4.2,0,0,1,4.2-4.2m0-.25a4.45,4.45,0,1,0,4.44,4.45,4.45,4.45,0,0,0-4.44-4.45Z"/><path d="M887.22,1022.78a4.2,4.2,0,1,1-4.2,4.2,4.2,4.2,0,0,1,4.2-4.2m0-.25a4.45,4.45,0,1,0,4.44,4.45,4.45,4.45,0,0,0-4.44-4.45Z"/><path d="M899.75,1022.78a4.2,4.2,0,1,1-4.2,4.2,4.2,4.2,0,0,1,4.2-4.2m0-.25a4.45,4.45,0,1,0,4.44,4.45,4.45,4.45,0,0,0-4.44-4.45Z"/><path d="M912.28,1022.78a4.2,4.2,0,1,1-4.2,4.2,4.2,4.2,0,0,1,4.2-4.2m0-.25a4.45,4.45,0,1,0,4.44,4.45,4.45,4.45,0,0,0-4.44-4.45Z"/><path d="M924.81,1022.78a4.2,4.2,0,1,1-4.2,4.2,4.21,4.21,0,0,1,4.2-4.2m0-.25a4.45,4.45,0,1,0,4.45,4.45,4.45,4.45,0,0,0-4.45-4.45Z"/><path d="M937.34,1022.78a4.2,4.2,0,1,1-4.2,4.2,4.2,4.2,0,0,1,4.2-4.2m0-.25a4.45,4.45,0,1,0,4.44,4.45,4.45,4.45,0,0,0-4.44-4.45Z"/><path d="M874.69,1034.78a4.2,4.2,0,1,1-4.2,4.2,4.2,4.2,0,0,1,4.2-4.2m0-.25a4.45,4.45,0,1,0,4.44,4.45,4.45,4.45,0,0,0-4.44-4.45Z"/><path d="M887.22,1034.78a4.2,4.2,0,1,1-4.2,4.2,4.2,4.2,0,0,1,4.2-4.2m0-.25a4.45,4.45,0,1,0,4.44,4.45,4.45,4.45,0,0,0-4.44-4.45Z"/><path d="M899.75,1034.78a4.2,4.2,0,1,1-4.2,4.2,4.2,4.2,0,0,1,4.2-4.2m0-.25a4.45,4.45,0,1,0,4.44,4.45,4.45,4.45,0,0,0-4.44-4.45Z"/><path d="M912.28,1034.78a4.2,4.2,0,1,1-4.2,4.2,4.2,4.2,0,0,1,4.2-4.2m0-.25a4.45,4.45,0,1,0,4.44,4.45,4.45,4.45,0,0,0-4.44-4.45Z"/><path d="M924.81,1034.78a4.2,4.2,0,1,1-4.2,4.2,4.21,4.21,0,0,1,4.2-4.2m0-.25a4.45,4.45,0,1,0,4.45,4.45,4.45,4.45,0,0,0-4.45-4.45Z"/><path d="M937.34,1034.78a4.2,4.2,0,1,1-4.2,4.2,4.2,4.2,0,0,1,4.2-4.2m0-.25a4.45,4.45,0,1,0,4.44,4.45,4.45,4.45,0,0,0-4.44-4.45Z"/><path d="M874.69,1046.78a4.2,4.2,0,1,1-4.2,4.2,4.2,4.2,0,0,1,4.2-4.2m0-.25a4.45,4.45,0,1,0,4.44,4.45,4.45,4.45,0,0,0-4.44-4.45Z"/><path d="M887.22,1046.78a4.2,4.2,0,1,1-4.2,4.2,4.2,4.2,0,0,1,4.2-4.2m0-.25a4.45,4.45,0,1,0,4.44,4.45,4.45,4.45,0,0,0-4.44-4.45Z"/><path d="M899.75,1046.78a4.2,4.2,0,1,1-4.2,4.2,4.2,4.2,0,0,1,4.2-4.2m0-.25a4.45,4.45,0,1,0,4.44,4.45,4.45,4.45,0,0,0-4.44-4.45Z"/><path d="M912.28,1046.78a4.2,4.2,0,1,1-4.2,4.2,4.2,4.2,0,0,1,4.2-4.2m0-.25a4.45,4.45,0,1,0,4.44,4.45,4.45,4.45,0,0,0-4.44-4.45Z"/><path d="M924.81,1046.78a4.2,4.2,0,1,1-4.2,4.2,4.21,4.21,0,0,1,4.2-4.2m0-.25a4.45,4.45,0,1,0,4.45,4.45,4.45,4.45,0,0,0-4.45-4.45Z"/><path d="M937.34,1046.78a4.2,4.2,0,1,1-4.2,4.2,4.2,4.2,0,0,1,4.2-4.2m0-.25a4.45,4.45,0,1,0,4.44,4.45,4.45,4.45,0,0,0-4.44-4.45Z"/><path d="M874.69,1058.78a4.2,4.2,0,1,1-4.2,4.2,4.2,4.2,0,0,1,4.2-4.2m0-.25a4.45,4.45,0,1,0,4.44,4.45,4.45,4.45,0,0,0-4.44-4.45Z"/><path d="M887.22,1058.78a4.2,4.2,0,1,1-4.2,4.2,4.2,4.2,0,0,1,4.2-4.2m0-.25a4.45,4.45,0,1,0,4.44,4.45,4.45,4.45,0,0,0-4.44-4.45Z"/><path d="M899.75,1058.78a4.2,4.2,0,1,1-4.2,4.2,4.2,4.2,0,0,1,4.2-4.2m0-.25a4.45,4.45,0,1,0,4.44,4.45,4.45,4.45,0,0,0-4.44-4.45Z"/><path d="M912.28,1058.78a4.2,4.2,0,1,1-4.2,4.2,4.2,4.2,0,0,1,4.2-4.2m0-.25a4.45,4.45,0,1,0,4.44,4.45,4.45,4.45,0,0,0-4.44-4.45Z"/><path d="M924.81,1058.78a4.2,4.2,0,1,1-4.2,4.2,4.21,4.21,0,0,1,4.2-4.2m0-.25a4.45,4.45,0,1,0,4.45,4.45,4.45,4.45,0,0,0-4.45-4.45Z"/><path d="M937.34,1058.78a4.2,4.2,0,1,1-4.2,4.2,4.2,4.2,0,0,1,4.2-4.2m0-.25a4.45,4.45,0,1,0,4.44,4.45,4.45,4.45,0,0,0-4.44-4.45Z"/><path d="M874.69,1070.78a4.2,4.2,0,1,1-4.2,4.2,4.2,4.2,0,0,1,4.2-4.2m0-.25a4.45,4.45,0,1,0,4.44,4.45,4.45,4.45,0,0,0-4.44-4.45Z"/><path d="M887.22,1070.78a4.2,4.2,0,1,1-4.2,4.2,4.2,4.2,0,0,1,4.2-4.2m0-.25a4.45,4.45,0,1,0,4.44,4.45,4.45,4.45,0,0,0-4.44-4.45Z"/><path d="M899.75,1070.78a4.2,4.2,0,1,1-4.2,4.2,4.2,4.2,0,0,1,4.2-4.2m0-.25a4.45,4.45,0,1,0,4.44,4.45,4.45,4.45,0,0,0-4.44-4.45Z"/><path d="M912.28,1070.78a4.2,4.2,0,1,1-4.2,4.2,4.2,4.2,0,0,1,4.2-4.2m0-.25a4.45,4.45,0,1,0,4.44,4.45,4.45,4.45,0,0,0-4.44-4.45Z"/><path d="M924.81,1070.78a4.2,4.2,0,1,1-4.2,4.2,4.21,4.21,0,0,1,4.2-4.2m0-.25a4.45,4.45,0,1,0,4.45,4.45,4.45,4.45,0,0,0-4.45-4.45Z"/><path d="M937.34,1070.78a4.2,4.2,0,1,1-4.2,4.2,4.2,4.2,0,0,1,4.2-4.2m0-.25a4.45,4.45,0,1,0,4.44,4.45,4.45,4.45,0,0,0-4.44-4.45Z"/><path class="cls-3" d="M159.68,998.29c25.46,0,67.07-7.59,86.84-20.63-2.14-11.7-7.07-30.65-11.74-47.6-5.95-21.59-43.48-36.55-65.88-36.55H147.32c-22.46,0-60.06,15-65.93,36.73-4.47,16.52-9.25,34.67-11.63,45.32C90.14,989.88,132.89,998.29,159.68,998.29Z"/><rect class="cls-4" x="50.26" y="923.31" width="215.09" height="123.86" rx="11.36"/><rect class="cls-10" x="54.16" y="925.59" width="207.29" height="121.57" rx="21.02"/><circle class="cls-11" cx="157.8" cy="986.38" r="7.01"/><ellipse class="cls-4" cx="150.88" cy="828.8" rx="53.43" ry="66.7"/><path d="M159.38,767.61c28.91,0,52.43,29.47,52.43,65.69,0,22.21-11.73,38.67-18.73,46.5-10.42,11.66-23.64,19.2-33.7,19.2-10.83,0-24-7.35-34.35-19.19C113.37,866.48,107,850,107,833.3c0-36.22,23.52-65.69,52.43-65.69m0-1c-29.51,0-53.43,29.86-53.43,66.69S137,900,159.38,900c20.62,0,53.43-29.86,53.43-66.7s-23.92-66.69-53.43-66.69Z"/><rect class="cls-1" x="1656.53" y="836.11" width="2" height="166.89"/><rect class="cls-1" x="1751.53" y="836.11" width="2" height="166.89"/><rect class="cls-1" x="1476" y="1003" width="474" height="2"/><rect class="cls-1" x="1476" y="910" width="474" height="2"/><rect class="cls-1" x="1418" y="836" width="532" height="2"/><rect class="cls-12" x="1506.5" y="745.5" width="431" height="2"/><path class="cls-12" d="M1508,747a17,17,0,1,1-17-17A17,17,0,0,1,1508,747Zm-2,0a15,15,0,1,0-15,15A15,15,0,0,0,1506,747Z"/><rect class="cls-12" x="1656.56" y="746" width="2" height="90"/><rect class="cls-12" x="1751.56" y="746" width="2" height="164"/><rect class="cls-12" x="1844" y="746" width="2" height="264"/><circle class="cls-13" cx="1657.53" cy="746" r="14.59"/><circle class="cls-13" cx="1753" cy="746" r="14.59"/><circle class="cls-13" cx="1844.91" cy="746" r="14.59"/><circle class="cls-13" cx="1845.44" cy="1003" r="14"/><circle class="cls-13" cx="1845.08" cy="910.11" r="14"/><circle class="cls-13" cx="1753" cy="910" r="14"/><circle class="cls-13" cx="1752.64" cy="836.11" r="14"/><circle class="cls-13" cx="1658" cy="836" r="14"/><circle class="cls-1" cx="1452" cy="1004" r="13"/><circle class="cls-1" cx="1452" cy="912" r="13"/><circle class="cls-1" cx="1394" cy="837" r="13"/><g id="Layer_1-2-3" data-name="Layer 1-2"><path class="cls-6" d="M1305.24,903.81h172.59a5.11,5.11,0,0,1,5.12,5.11v235.66H1300.13V908.92A5.11,5.11,0,0,1,1305.24,903.81Z"/><circle class="cls-3" cx="1391.54" cy="992.02" r="75"/><circle class="cls-14" cx="1391.54" cy="992.02" r="26.21"/><circle class="cls-11" cx="1312.92" cy="917.02" r="5.97"/><circle class="cls-11" cx="1469.31" cy="917.02" r="5.97"/><rect class="cls-5" x="1326.13" y="913.82" width="19.6" height="6.39" rx="1.33"/><circle class="cls-11" cx="1391.54" cy="992.02" r="18.32"/></g></svg>