<?xml version="1.0" standalone="no"?>
<!DOCTYPE svg PUBLIC "-//W3C//DTD SVG 20010904//EN"
 "http://www.w3.org/TR/2001/REC-SVG-20010904/DTD/svg10.dtd">
<svg version="1.0" xmlns="http://www.w3.org/2000/svg"
 width="4295.000000pt" height="4015.000000pt" viewBox="0 0 4295.000000 4015.000000"
 preserveAspectRatio="xMidYMid meet">

<g transform="translate(0.000000,4015.000000) scale(0.100000,-0.100000)"
fill="#000000" stroke="none">
<path d="M6745 40129 c-2067 -121 -3968 -1123 -5242 -2765 -452 -583 -822
-1257 -1078 -1964 -474 -1311 -545 -2796 -201 -4168 181 -721 485 -1429 884
-2062 375 -596 857 -1154 1388 -1610 1068 -917 2376 -1500 3759 -1674 511 -65
1126 -72 1635 -21 1379 141 2670 669 3750 1536 1465 1174 2415 2884 2629 4730
38 325 45 469 45 854 0 592 -48 1041 -169 1580 -620 2757 -2828 4901 -5605
5444 -562 110 -1219 154 -1795 120z"/>
<path d="M35365 40129 c-3471 -202 -6305 -2888 -6689 -6339 -32 -289 -40 -446
-40 -805 0 -446 18 -702 80 -1105 228 -1490 935 -2880 2009 -3955 801 -800
1783 -1402 2855 -1750 1262 -409 2652 -456 3945 -134 855 213 1692 599 2415
1115 520 370 1017 838 1416 1335 812 1007 1328 2190 1513 3464 49 336 71 658
71 1030 0 698 -87 1322 -275 1980 -134 467 -275 821 -509 1280 -346 679 -766
1256 -1311 1800 -1171 1171 -2693 1895 -4335 2059 -343 35 -805 45 -1145 25z"/>
<path d="M6715 24433 c-22 -1 -103 -8 -180 -13 -527 -41 -1081 -161 -1540
-332 -1078 -404 -2057 -1143 -2881 -2174 -410 -514 -767 -1075 -1104 -1741
-202 -397 -300 -671 -357 -998 -17 -95 -18 -598 -20 -9632 l-3 -9533 6685 0
6685 0 0 5750 c0 3163 3 5750 7 5750 5 0 1686 -1679 3738 -3730 l3730 -3730
3730 3730 c2051 2051 3733 3730 3737 3730 5 0 8 -2587 8 -5750 l0 -5750 6685
0 6685 0 0 9485 c0 6583 -3 9516 -11 9583 -43 402 -186 776 -554 1447 -698
1274 -1583 2277 -2605 2951 -621 409 -1265 684 -1940 827 -462 99 -849 137
-1380 137 -642 0 -1182 -63 -1757 -205 -1036 -256 -2017 -747 -2836 -1418
-113 -93 -599 -608 -8869 -9415 -487 -519 -889 -943 -892 -943 -7 1 -2225
2360 -8940 9511 -463 493 -734 773 -800 829 -248 206 -584 443 -907 636 -223
134 -680 364 -914 460 -752 311 -1486 479 -2330 535 -135 9 -770 11 -870 3z"/>
</g>
</svg>
